<svg width="205" height="48" viewBox="0 0 205 48" fill="none" xmlns="http://www.w3.org/2000/svg">
<path d="M3.76172 33.6133C2.33203 33.0508 1.34766 32.2891 0.808594 31.3281C0.269531 30.3672 0.046875 29.3008 0.140625 28.1289C0.257812 26.9336 0.632812 25.668 1.26562 24.332C1.92188 22.9727 2.71875 21.6133 3.65625 20.2539C4.61719 18.8945 5.67188 17.5703 6.82031 16.2812C7.96875 14.9922 9.10547 13.8086 10.2305 12.7305C11.3555 11.6523 12.4102 10.7148 13.3945 9.91797C14.3789 9.12109 15.1758 8.53516 15.7852 8.16016C16.6289 7.64453 17.332 7.39844 17.8945 7.42188C18.457 7.42188 18.9023 7.59766 19.2305 7.94922C19.582 8.27734 19.8164 8.74609 19.9336 9.35547C20.0742 9.94141 20.1328 10.5742 20.1094 11.2539C20.1094 11.9102 20.0391 12.5781 19.8984 13.2578C19.7812 13.9141 19.6172 14.4883 19.4062 14.9805C19.2188 15.4727 19.0078 15.8359 18.7734 16.0703C18.5625 16.3047 18.3516 16.3164 18.1406 16.1055C18.1172 15.918 18.1406 15.6367 18.2109 15.2617C18.2812 14.8633 18.3633 14.418 18.457 13.9258C18.5742 13.4336 18.6797 12.9297 18.7734 12.4141C18.8672 11.8984 18.9258 11.4297 18.9492 11.0078C18.9961 10.5625 18.9844 10.1875 18.9141 9.88281C18.8672 9.57813 18.7383 9.40234 18.5273 9.35547C17.707 9.14453 16.7227 9.34375 15.5742 9.95312C14.4492 10.5391 13.2656 11.3945 12.0234 12.5195C10.8047 13.6211 9.58594 14.9102 8.36719 16.3867C7.17188 17.8398 6.08203 19.3398 5.09766 20.8867C4.11328 22.4336 3.30469 23.9453 2.67188 25.4219C2.03906 26.875 1.67578 28.1641 1.58203 29.2891C1.51172 30.3906 1.75781 31.2461 2.32031 31.8555C2.90625 32.4414 3.92578 32.6289 5.37891 32.418C6.71484 32.2305 7.94531 31.7617 9.07031 31.0117C10.2188 30.2383 11.3203 29.3945 12.375 28.4805C13.4531 27.543 14.5195 26.6289 15.5742 25.7383C16.6289 24.8242 17.7305 24.1328 18.8789 23.6641C19.3008 23.5 19.6289 23.5586 19.8633 23.8398C20.1211 24.1211 20.1914 24.4609 20.0742 24.8594C19.9336 25.2578 19.5117 25.7852 18.8086 26.4414C18.1289 27.0977 17.2734 27.7891 16.2422 28.5156C15.2344 29.2188 14.1211 29.9336 12.9023 30.6602C11.6836 31.3633 10.4883 31.9727 9.31641 32.4883C8.16797 33.0039 7.08984 33.3789 6.08203 33.6133C5.09766 33.8477 4.32422 33.8477 3.76172 33.6133ZM23.2734 33.6133C22.8984 33.3555 22.7461 32.9688 22.8164 32.4531C22.8867 31.9375 23.0508 31.4102 23.3086 30.8711C23.5664 30.2617 23.9414 29.5938 24.4336 28.8672C25.1836 27.4375 25.8516 26.1602 26.4375 25.0352C27.0469 23.8867 27.6094 22.8086 28.125 21.8008C28.6406 20.793 29.1328 19.8203 29.6016 18.8828C30.0703 17.9453 30.5391 16.9609 31.0078 15.9297C31.5 14.8984 32.0039 13.7969 32.5195 12.625C33.0352 11.4531 33.6094 10.1172 34.2422 8.61719C34.2891 8.52344 34.3594 8.39453 34.4531 8.23047C34.5703 8.04297 34.6992 7.90234 34.8398 7.80859C35.0039 7.69141 35.168 7.65625 35.332 7.70312C35.4961 7.72656 35.6602 7.89063 35.8242 8.19531C36.0586 8.66406 36.0703 9.30859 35.8594 10.1289C35.6719 10.9492 35.332 11.8984 34.8398 12.9766C34.3477 14.0312 33.7617 15.1797 33.082 16.4219C32.4023 17.6406 31.6875 18.8828 30.9375 20.1484C30.1875 21.4141 29.4492 22.668 28.7227 23.9102C27.9961 25.1523 27.3516 26.3125 26.7891 27.3906C26.25 28.4688 25.8281 29.4531 25.5234 30.3438C25.2422 31.2109 25.1484 31.9023 25.2422 32.418C26.9062 32.582 28.582 32.5703 30.2695 32.3828C31.957 32.1953 33.6445 31.9727 35.332 31.7148C37.0195 31.4336 38.707 31.1875 40.3945 30.9766C42.1055 30.7656 43.8047 30.7188 45.4922 30.8359C45.7969 30.7891 46.0547 30.8945 46.2656 31.1523C46.4766 31.4102 46.4883 31.6914 46.3008 31.9961C46.2539 31.9961 46.1484 31.9961 45.9844 31.9961C45.8438 31.9727 45.6914 31.9609 45.5273 31.9609C45.3633 31.9609 45.1992 31.9727 45.0352 31.9961C44.8945 31.9961 44.7891 31.9961 44.7188 31.9961C43.4062 32.1133 41.8711 32.3242 40.1133 32.6289C38.3555 32.9102 36.5391 33.1797 34.6641 33.4375C32.7891 33.6953 30.9141 33.8945 29.0391 34.0352C27.1875 34.1758 25.5117 34.1641 24.0117 34C23.9883 34 23.8711 33.9531 23.6602 33.8594C23.4727 33.7422 23.3438 33.6602 23.2734 33.6133ZM44.1914 40.5039C44.1211 40.457 44.0156 40.3398 43.875 40.1523C43.7109 39.9883 43.582 39.8125 43.4883 39.625C43.3945 39.4375 43.3594 39.2734 43.3828 39.1328C43.3828 38.9922 43.5117 38.9219 43.7695 38.9219C44.2617 39.6016 44.9531 39.8594 45.8438 39.6953C46.7344 39.5312 47.6953 39.1211 48.7266 38.4648C49.7578 37.832 50.8008 37.0234 51.8555 36.0391C52.9336 35.0781 53.8945 34.1172 54.7383 33.1562C55.6055 32.1953 56.3086 31.3281 56.8477 30.5547C57.4102 29.7812 57.6914 29.2656 57.6914 29.0078C57.6914 28.9375 57.5977 28.832 57.4102 28.6914C57.2227 28.5273 57 28.3633 56.7422 28.1992C56.5078 28.0352 56.2852 27.8828 56.0742 27.7422C55.8633 27.6016 55.7344 27.4961 55.6875 27.4258C55.7578 27.1914 55.9805 27.0156 56.3555 26.8984C56.7305 26.7578 57.1523 26.6406 57.6211 26.5469C58.0898 26.4297 58.5469 26.3242 58.9922 26.2305C59.4609 26.1133 59.8125 25.9727 60.0469 25.8086C61.2891 24.0039 62.3672 22.3867 63.2812 20.957C64.2188 19.5039 65.0977 18.0859 65.918 16.7031C66.7617 15.2969 67.6172 13.8555 68.4844 12.3789C69.3516 10.9023 70.3477 9.23828 71.4727 7.38672C71.7773 6.87109 72.0234 6.69531 72.2109 6.85938C72.3984 7.02344 72.5391 7.42188 72.6328 8.05469C72.7266 8.6875 72.7852 9.49609 72.8086 10.4805C72.832 11.4414 72.832 12.4844 72.8086 13.6094C72.7852 14.7344 72.7383 15.8828 72.668 17.0547C72.6211 18.2266 72.5625 19.3047 72.4922 20.2891C72.4453 21.2734 72.3984 22.1289 72.3516 22.8555C72.3281 23.5586 72.3281 24.0156 72.3516 24.2266C72.4453 25.4219 72.5039 26.4648 72.5273 27.3555C72.5742 28.2227 72.6914 29.0312 72.8789 29.7812C73.0664 30.5078 73.3828 31.2227 73.8281 31.9258C74.2969 32.6055 75 33.3555 75.9375 34.1758C75.1641 34.4336 74.5195 34.4102 74.0039 34.1055C73.5117 33.8242 73.1016 33.3906 72.7734 32.8047C72.4688 32.1953 72.2109 31.5039 72 30.7305C71.8125 29.9336 71.625 29.1719 71.4375 28.4453C71.2734 27.6953 71.0742 27.0508 70.8398 26.5117C70.6289 25.9492 70.3359 25.5859 69.9609 25.4219C69.9375 25.4219 69.8672 25.4219 69.75 25.4219C69.6562 25.3984 69.5391 25.3867 69.3984 25.3867C69.2812 25.3867 69.1641 25.3984 69.0469 25.4219C68.9297 25.4219 68.8477 25.4219 68.8008 25.4219C68.5898 25.4688 68.1914 25.5625 67.6055 25.7031C67.043 25.8438 66.4219 25.9961 65.7422 26.1602C65.0625 26.3242 64.4062 26.4883 63.7734 26.6523C63.1641 26.8164 62.7188 26.9336 62.4375 27.0039C61.8516 27.168 61.2305 27.543 60.5742 28.1289C59.9414 28.7148 59.2617 29.4297 58.5352 30.2734C57.832 31.0938 57.0938 31.9961 56.3203 32.9805C55.5703 33.9648 54.7969 34.9258 54 35.8633C53.2031 36.8008 52.3945 37.668 51.5742 38.4648C50.7539 39.2617 49.9336 39.9062 49.1133 40.3984C48.293 40.8906 47.4727 41.1602 46.6523 41.207C45.8086 41.2773 44.9883 41.043 44.1914 40.5039ZM63.2461 25.0352C63.293 25.0586 63.4102 25.0703 63.5977 25.0703C63.8086 25.0703 63.9492 25.0586 64.0195 25.0352C64.4414 24.9648 64.9688 24.8828 65.6016 24.7891C66.2344 24.6953 66.8672 24.5898 67.5 24.4727C68.1328 24.332 68.7188 24.1797 69.2578 24.0156C69.7969 23.8281 70.1719 23.6289 70.3828 23.418C70.3828 23.418 70.418 23.1719 70.4883 22.6797C70.5586 22.1875 70.6406 21.5664 70.7344 20.8164C70.8281 20.043 70.9219 19.1992 71.0156 18.2852C71.1328 17.3477 71.2383 16.4336 71.332 15.543C71.4258 14.6523 71.4961 13.832 71.543 13.082C71.6133 12.3086 71.6602 11.7109 71.6836 11.2891C71.4258 11.1719 71.0859 11.4766 70.6641 12.2031C70.2422 12.9062 69.6914 13.8789 69.0117 15.1211C68.3555 16.3633 67.5469 17.8164 66.5859 19.4805C65.6484 21.1211 64.5352 22.832 63.2461 24.6133V25.0352ZM77.0625 32.8047C77.0156 32.6406 77.0039 32.418 77.0273 32.1367C77.0742 31.832 77.1211 31.5273 77.168 31.2227C77.2383 30.918 77.3086 30.6484 77.3789 30.4141C77.4492 30.1797 77.4844 30.0508 77.4844 30.0273L85.4297 9.35547C85.5938 8.93359 85.7461 8.78125 85.8867 8.89844C86.0273 8.99219 86.1328 9.21484 86.2031 9.56641C86.2969 9.89453 86.3438 10.2813 86.3438 10.7266C86.3438 11.1484 86.2969 11.4883 86.2031 11.7461C85.4531 13.5273 84.6914 15.3203 83.918 17.125C83.168 18.9062 82.4414 20.7109 81.7383 22.5391C81.0586 24.3438 80.4141 26.1719 79.8047 28.0234C79.1953 29.8516 78.6797 31.7148 78.2578 33.6133C78.0703 33.7305 77.9062 33.7773 77.7656 33.7539C77.6484 33.7305 77.5312 33.6719 77.4141 33.5781C77.3203 33.4609 77.2383 33.332 77.168 33.1914C77.1211 33.0508 77.0859 32.9219 77.0625 32.8047Z" fill="#5F5173"/>
<path d="M85.043 33.6133C84.8555 33.0742 84.9609 32.2422 85.3594 31.1172C85.7578 29.9688 86.2969 28.6797 86.9766 27.25C87.6797 25.7969 88.4531 24.2969 89.2969 22.75C90.1641 21.2031 90.9492 19.7617 91.6523 18.4258C92.3789 17.0664 92.9648 15.918 93.4102 14.9805C93.8789 14.0195 94.0664 13.4102 93.9727 13.1523C93.6914 13.0586 93.3867 13.0938 93.0586 13.2578C92.7539 13.4219 92.4375 13.5859 92.1094 13.75C91.8047 13.9141 91.5 14.0078 91.1953 14.0312C90.8906 14.0547 90.6211 13.8906 90.3867 13.5391C90.2695 13.375 90.2227 13.2227 90.2461 13.082C90.293 12.918 90.3633 12.7656 90.457 12.625C90.5742 12.4844 90.6914 12.3672 90.8086 12.2734C90.9492 12.1562 91.0664 12.0625 91.1602 11.9922C93.832 10.2344 96.3633 8.86328 98.7539 7.87891C101.168 6.89453 103.324 6.22656 105.223 5.875C107.145 5.52344 108.75 5.45312 110.039 5.66406C111.352 5.875 112.254 6.30859 112.746 6.96484C113.238 7.59766 113.262 8.42969 112.816 9.46094C112.395 10.4687 111.398 11.6055 109.828 12.8711C108.281 14.1367 106.09 15.4961 103.254 16.9492C100.441 18.3789 96.9023 19.8438 92.6367 21.3438C92.4023 21.7188 92.4609 22.1406 92.8125 22.6094C93.1875 23.0781 93.7266 23.5938 94.4297 24.1562C95.1562 24.6953 96 25.2578 96.9609 25.8438C97.9453 26.4297 98.9297 27.0273 99.9141 27.6367C100.922 28.2227 101.871 28.8086 102.762 29.3945C103.676 29.957 104.426 30.4961 105.012 31.0117C105.598 31.5273 105.973 32.0078 106.137 32.4531C106.324 32.8984 106.172 33.2852 105.68 33.6133C105.656 33.6367 105.504 33.5547 105.223 33.3672C104.965 33.1562 104.637 32.8984 104.238 32.5938C103.84 32.2656 103.406 31.9141 102.938 31.5391C102.492 31.1641 102.059 30.8125 101.637 30.4844C101.238 30.1562 100.887 29.875 100.582 29.6406C100.301 29.4062 100.137 29.2656 100.09 29.2188C98.6836 28.3281 97.2773 27.4492 95.8711 26.582C94.4648 25.7148 93.0938 24.7422 91.7578 23.6641C91.3125 23.5234 90.8672 23.7578 90.4219 24.3672C89.9766 24.9766 89.543 25.7617 89.1211 26.7227C88.6992 27.6602 88.2773 28.668 87.8555 29.7461C87.457 30.8008 87.082 31.7266 86.7305 32.5234C86.3789 33.2969 86.0625 33.8242 85.7812 34.1055C85.5 34.4102 85.2539 34.2461 85.043 33.6133ZM93.4102 18.9531C93.9258 19.1172 94.6172 19.1055 95.4844 18.918C96.375 18.7305 97.3477 18.4141 98.4023 17.9688C99.4805 17.5234 100.594 16.9844 101.742 16.3516C102.914 15.7188 104.027 15.0625 105.082 14.3828C106.137 13.6797 107.098 12.9766 107.965 12.2734C108.855 11.5703 109.547 10.9258 110.039 10.3398C110.531 9.73047 110.789 9.21484 110.812 8.79297C110.859 8.37109 110.578 8.10156 109.969 7.98438C107.438 7.9375 105.281 8.06641 103.5 8.37109C101.719 8.65234 100.195 9.19141 98.9297 9.98828C97.6641 10.7852 96.5977 11.875 95.7305 13.2578C94.8633 14.6406 94.0898 16.3984 93.4102 18.5312V18.9531ZM109.195 33.1914C109.055 33.0742 109.09 32.9453 109.301 32.8047C109.535 31.9609 109.77 31.1523 110.004 30.3789C110.262 29.6055 110.531 28.8438 110.812 28.0938C111.094 27.3203 111.387 26.5469 111.691 25.7734C112.02 24.9766 112.359 24.1445 112.711 23.2773C112.828 23.0664 112.805 22.8555 112.641 22.6445C112.5 22.4102 112.324 22.1875 112.113 21.9766C111.926 21.7422 111.785 21.5078 111.691 21.2734C111.621 21.0156 111.715 20.7578 111.973 20.5C111.996 20.4766 112.078 20.4414 112.219 20.3945C112.383 20.3477 112.559 20.3125 112.746 20.2891C112.934 20.2422 113.098 20.207 113.238 20.1836C113.402 20.1367 113.508 20.1016 113.555 20.0781C113.625 20.0312 113.754 19.9141 113.941 19.7266C114.152 19.5156 114.281 19.375 114.328 19.3047C114.703 18.6719 115.055 18.1094 115.383 17.6172C115.734 17.125 116.051 16.6328 116.332 16.1406C116.637 15.6484 116.906 15.1328 117.141 14.5938C117.375 14.0547 117.586 13.4219 117.773 12.6953C117.844 12.4141 117.773 12.2383 117.562 12.168C117.375 12.0742 117.152 11.9922 116.895 11.9219C116.637 11.8516 116.426 11.7461 116.262 11.6055C116.098 11.4414 116.086 11.1484 116.227 10.7266C116.32 10.4687 116.766 10.1875 117.562 9.88281C118.383 9.57813 119.414 9.28516 120.656 9.00391C121.898 8.72266 123.293 8.46484 124.84 8.23047C126.387 7.99609 127.934 7.80859 129.48 7.66797C131.027 7.52734 132.504 7.44531 133.91 7.42188C135.316 7.375 136.512 7.42188 137.496 7.5625C138.48 7.67969 139.184 7.90234 139.605 8.23047C140.027 8.53516 140.016 8.96875 139.57 9.53125C139.359 9.57813 139.137 9.58984 138.902 9.56641C138.691 9.51953 138.469 9.46094 138.234 9.39062C138 9.32031 137.754 9.26172 137.496 9.21484C137.238 9.14453 136.992 9.12109 136.758 9.14453C135.633 9.23828 134.531 9.27344 133.453 9.25C132.375 9.22656 131.297 9.21484 130.219 9.21484C129.141 9.21484 128.062 9.26172 126.984 9.35547C125.906 9.42578 124.828 9.61328 123.75 9.91797C123 10.1289 122.332 10.5039 121.746 11.043C121.16 11.5586 120.598 12.2266 120.059 13.0469C119.543 13.8437 119.016 14.7695 118.477 15.8242C117.961 16.8789 117.375 18.0391 116.719 19.3047C116.977 19.375 117.457 19.3281 118.16 19.1641C118.887 19 119.707 18.8008 120.621 18.5664C121.559 18.3086 122.543 18.0625 123.574 17.8281C124.605 17.5703 125.566 17.3945 126.457 17.3008C127.371 17.1836 128.168 17.1836 128.848 17.3008C129.527 17.3945 129.984 17.6641 130.219 18.1094C130.242 18.1562 130.254 18.2266 130.254 18.3203C130.254 18.4141 130.242 18.4727 130.219 18.4961C128.977 18.6836 127.688 18.8594 126.352 19.0234C125.039 19.1641 123.727 19.3516 122.414 19.5859C121.125 19.8203 119.859 20.1367 118.617 20.5352C117.375 20.9102 116.203 21.4258 115.102 22.082C114.211 23.6523 113.414 25.2695 112.711 26.9336C112.008 28.5977 111.387 30.2852 110.848 31.9961C111.527 31.7617 112.312 31.5391 113.203 31.3281C114.117 31.0938 114.984 30.8828 115.805 30.6953C116.648 30.5078 117.375 30.3555 117.984 30.2383C118.617 30.1211 118.992 30.0508 119.109 30.0273C121.102 29.7227 123.012 29.4883 124.84 29.3242C126.691 29.1367 128.613 29.1016 130.605 29.2188C130.77 29.2656 130.887 29.3594 130.957 29.5C131.027 29.6406 131.074 29.8047 131.098 29.9922C131.121 30.1562 131.121 30.3203 131.098 30.4844C131.074 30.6484 131.051 30.7656 131.027 30.8359C128.473 30.6953 125.93 30.7891 123.398 31.1172C120.891 31.4453 118.395 31.8789 115.91 32.418C115.512 32.5117 115.02 32.6758 114.434 32.9102C113.871 33.1445 113.285 33.3555 112.676 33.543C112.09 33.7305 111.516 33.8594 110.953 33.9297C110.414 34 109.957 33.9062 109.582 33.6484C109.488 33.6016 109.406 33.543 109.336 33.4727C109.266 33.4023 109.219 33.3086 109.195 33.1914ZM136.793 33.1914C136.301 32.9102 135.949 32.4648 135.738 31.8555C135.527 31.2461 135.41 30.5547 135.387 29.7812C135.363 29.0078 135.41 28.1992 135.527 27.3555C135.645 26.5117 135.785 25.6914 135.949 24.8945C136.113 24.0977 136.277 23.3828 136.441 22.75C136.605 22.1172 136.723 21.625 136.793 21.2734C136.91 21.2031 137.027 21.2031 137.145 21.2734C137.285 21.3438 137.414 21.4492 137.531 21.5898C137.672 21.707 137.777 21.8242 137.848 21.9414C137.941 22.0352 137.988 22.082 137.988 22.082C138.059 22.9023 138.059 23.7109 137.988 24.5078C137.941 25.2812 137.871 26.0547 137.777 26.8281C137.707 27.6016 137.637 28.3867 137.566 29.1836C137.52 29.9805 137.52 30.7891 137.566 31.6094C137.754 31.9609 138.141 31.9727 138.727 31.6445C139.312 31.293 140.027 30.7422 140.871 29.9922C141.715 29.2188 142.629 28.3164 143.613 27.2852C144.621 26.2305 145.605 25.1875 146.566 24.1562C147.551 23.125 148.477 22.1641 149.344 21.2734C150.211 20.3594 150.938 19.668 151.523 19.1992C152.133 18.707 152.555 18.5078 152.789 18.6016C153.023 18.6719 152.988 19.1641 152.684 20.0781C152.121 20.5703 151.453 21.3086 150.68 22.293C149.906 23.2773 149.062 24.3438 148.148 25.4922C147.234 26.6172 146.285 27.7422 145.301 28.8672C144.316 29.9922 143.32 30.9648 142.312 31.7852C141.328 32.582 140.367 33.1445 139.43 33.4727C138.492 33.7773 137.613 33.6836 136.793 33.1914Z" fill="#BF99A0"/>
<path d="M171.777 33.6133C170.793 33.2148 170.172 32.6172 169.914 31.8203C169.68 31.0234 169.691 30.1445 169.949 29.1836C170.207 28.1992 170.652 27.1914 171.285 26.1602C171.918 25.1055 172.621 24.1445 173.395 23.2773C174.168 22.4102 174.941 21.6836 175.715 21.0977C176.512 20.4883 177.191 20.1484 177.754 20.0781C179.207 19.8906 180.344 19.9961 181.164 20.3945C182.008 20.7695 182.582 21.3203 182.887 22.0469C183.191 22.7734 183.273 23.6289 183.133 24.6133C182.992 25.5742 182.676 26.5469 182.184 27.5312C181.715 28.5156 181.094 29.4648 180.32 30.3789C179.57 31.293 178.727 32.0664 177.789 32.6992C176.875 33.3086 175.902 33.7188 174.871 33.9297C173.84 34.1172 172.809 34.0117 171.777 33.6133ZM171.391 31.6094C171.578 32.3594 171.977 32.7812 172.586 32.875C173.195 32.9453 173.898 32.793 174.695 32.418C175.516 32.0195 176.371 31.457 177.262 30.7305C178.152 29.9805 178.961 29.1719 179.688 28.3047C180.438 27.4375 181.047 26.5703 181.516 25.7031C182.008 24.8125 182.242 24.0391 182.219 23.3828C182.219 22.7266 181.902 22.2344 181.27 21.9062C180.66 21.5547 179.629 21.4844 178.176 21.6953C177.848 22 177.426 22.375 176.91 22.8203C176.395 23.2422 175.855 23.7109 175.293 24.2266C174.754 24.7422 174.215 25.3047 173.676 25.9141C173.137 26.5 172.668 27.1094 172.27 27.7422C171.871 28.375 171.578 29.0195 171.391 29.6758C171.227 30.332 171.227 30.9766 171.391 31.6094ZM197.828 33.6133C197.758 32.8398 197.816 32.0781 198.004 31.3281C198.215 30.5547 198.484 29.8047 198.812 29.0781C199.164 28.3281 199.527 27.5898 199.902 26.8633C200.301 26.1133 200.641 25.3867 200.922 24.6836C201.203 23.957 201.402 23.2539 201.52 22.5742C201.637 21.8711 201.59 21.1797 201.379 20.5C200.793 20.2891 200.113 20.3359 199.34 20.6406C198.59 20.9453 197.793 21.4141 196.949 22.0469C196.105 22.6562 195.227 23.3828 194.312 24.2266C193.422 25.0469 192.543 25.8906 191.676 26.7578C190.832 27.6016 190.023 28.4102 189.25 29.1836C188.477 29.957 187.773 30.6016 187.141 31.1172C186.531 31.6094 186.016 31.9258 185.594 32.0664C185.172 32.1836 184.891 32.0312 184.75 31.6094C184.727 31.5859 184.855 31.293 185.137 30.7305C185.441 30.1445 185.805 29.418 186.227 28.5508C186.672 27.6836 187.152 26.7461 187.668 25.7383C188.207 24.7305 188.711 23.793 189.18 22.9258C189.648 22.0352 190.059 21.2852 190.41 20.6758C190.762 20.0664 190.984 19.7383 191.078 19.6914C191.57 20.0195 191.816 20.3828 191.816 20.7812C191.84 21.1562 191.781 21.5547 191.641 21.9766C191.5 22.375 191.336 22.7852 191.148 23.207C190.984 23.6289 190.961 24.0508 191.078 24.4727C191.453 24.2148 191.969 23.8633 192.625 23.418C193.305 22.9492 194.031 22.4688 194.805 21.9766C195.602 21.4844 196.422 21.0039 197.266 20.5352C198.133 20.0664 198.941 19.7031 199.691 19.4453C200.441 19.1641 201.109 19.0117 201.695 18.9883C202.305 18.9648 202.75 19.1406 203.031 19.5156C203.312 19.8906 203.395 20.5117 203.277 21.3789C203.184 22.2227 202.82 23.3828 202.188 24.8594C202.117 25.0234 201.941 25.4219 201.66 26.0547C201.402 26.6641 201.109 27.332 200.781 28.0586C200.477 28.7617 200.184 29.4297 199.902 30.0625C199.645 30.6719 199.48 31.0586 199.41 31.2227C199.387 31.3164 199.352 31.4922 199.305 31.75C199.281 31.9844 199.246 32.2539 199.199 32.5586C199.152 32.8398 199.082 33.1211 198.988 33.4023C198.895 33.6602 198.777 33.8594 198.637 34C198.496 34.1406 198.332 34.1289 198.145 33.9648C197.957 33.7773 197.852 33.6602 197.828 33.6133Z" fill="#BF99A0"/>
<path d="M165.396 34.0713L165.389 32.6554L166.113 32.6511L166.059 20.8696L165.568 20.8721L165.56 19.0965L165.085 19.0992L165.048 11.2246L164.473 11.2279L164.465 6.96641C164.507 6.40303 164.053 5.64713 163.117 4.72016C162.578 4.18701 161.919 3.6432 161.209 3.14746C159.824 2.18038 158.005 1.23871 157.052 1.49451C156.79 1.56515 156.587 1.72736 156.482 1.95295C156.444 2.0334 156.42 2.12334 156.41 2.22482C156.405 2.25251 156.402 2.28019 156.403 2.30921L156.443 11.2715L155.882 11.2747L155.92 19.1493L155.444 19.1517L155.453 20.9272L154.962 20.9297L155.018 32.7115L155.741 32.7069L155.747 34.1242L165.396 34.0713ZM158.536 3.34391C157.744 2.55999 157.467 2.05422 157.39 1.86438C157.838 1.85906 159.157 2.29472 160.931 3.53272C161.659 4.04169 162.333 4.59704 162.88 5.13868C163.673 5.92396 163.95 6.42973 164.028 6.61889C163.58 6.62455 162.261 6.18889 160.486 4.95055C159.758 4.44158 159.083 3.88555 158.536 3.34391ZM156.851 12.234L164.088 12.1949L164.12 19.1048L156.885 19.1438L156.851 12.234ZM156.413 20.1109L164.599 20.0668L164.603 20.8776L156.418 20.922L156.413 20.1109ZM164.425 32.6603L164.427 33.1121L156.707 33.1542L156.705 32.702L164.425 32.6603Z" fill="#BF99A0"/>
<path d="M156.851 12.234L164.088 12.1949L164.12 19.1048L156.885 19.1438L156.851 12.234Z" fill="#BF99A0"/>
</svg>
