<svg width="15" height="20" viewBox="0 0 15 20" fill="none" xmlns="http://www.w3.org/2000/svg">
<path d="M0.430991 10.822L13.431 19.822C13.581 19.9258 13.7566 19.9866 13.9387 19.9978C14.1208 20.009 14.3025 19.9701 14.4641 19.8855C14.6257 19.8008 14.761 19.6735 14.8555 19.5175C14.95 19.3614 14.9999 19.1824 15 19V0.999999C15.0001 0.817476 14.9503 0.638401 14.8559 0.482181C14.7615 0.325961 14.6261 0.198555 14.4645 0.11377C14.3029 0.028986 14.1211 -0.00994296 13.9389 0.00120271C13.7567 0.0123484 13.5811 0.0731435 13.431 0.176999L0.430991 9.177C0.29855 9.26943 0.190388 9.39248 0.115702 9.53568C0.0410156 9.67888 0.00201416 9.83799 0.00201416 9.9995C0.00201416 10.161 0.0410156 10.3201 0.115702 10.4633C0.190388 10.6065 0.29855 10.7296 0.430991 10.822V10.822Z" fill="#5F5173"/>
</svg>
